<svg width="72" height="72" viewBox="0 0 72 72" fill="none" xmlns="http://www.w3.org/2000/svg">
<path d="M23.4 3.2399C14.04 7.1999 5.04002 17.6399 2.16002 27.7199C1.62125e-05 34.5599 0.720016 35.9999 7.20002 35.9999C11.52 35.9999 19.8 32.0399 25.92 26.9999C36.36 17.9999 58.68 14.3999 62.64 21.2399C63.72 23.0399 60.48 24.1199 55.44 24.1199C50.4 24.1199 41.76 28.7999 36 34.1999C30.24 39.5999 20.52 44.9999 13.68 46.4399L1.80002 48.9599L11.52 55.4399C20.16 61.1999 21.96 61.1999 31.32 56.1599C37.08 53.2799 43.92 48.2399 46.44 45.3599C49.32 42.1199 52.92 39.5999 55.08 39.5999C63.72 39.5999 34.2 64.7999 25.56 65.1599L16.2 65.5199L25.2 68.3999C44.28 74.1599 65.88 62.2799 69.48 43.9199C71.64 33.1199 65.16 15.1199 56.88 8.2799C49.68 2.1599 32.04 -0.3601 23.4 3.2399Z" fill="white"/>
</svg>
